# xmcd CD database file
#
# Track frame offsets:
#	150
#	13406
#	31047
#	52968
#	80013
#	101757
#	120056
#	131741
#	145021
#	162526
#	183573
#	200684
#
# Disc length: 2900 seconds
#
# Revision: 0
# Processed by: cddbd v1.5.1PL0 Copyright (c) Steve Scherf et al.
# Submitted via: CDex 1.40Release
#
DISCID=a20b520c
DTITLE=Henry Girls - Between Us
DYEAR=2003
DGENRE=Country
TTITLE0=The Farmer Song
TTITLE1=Visible Lies
TTITLE2=James Monroe
TTITLE3=King St. Waltz
TTITLE4=Eyes Of Wonder
TTITLE5=Beyond Here
TTITLE6=Mary's Reflection
TTITLE7=Hori-Horo
TTITLE8=Who Will She Turn To?
TTITLE9=Drumaville Reel
TTITLE10=After The Night Before
TTITLE11=Gambang Suling
EXTD=YEAR: 2003 ID3G: 2
EXTT0=
EXTT1=
EXTT2=
EXTT3=
EXTT4=
EXTT5=
EXTT6=
EXTT7=
EXTT8=
EXTT9=
EXTT10=
EXTT11=
PLAYORDER=
